<?xml version="1.0" standalone="no"?><!DOCTYPE svg PUBLIC "-//W3C//DTD SVG 1.1//EN" "http://www.w3.org/Graphics/SVG/1.1/DTD/svg11.dtd"><svg t="1714793878780" class="icon" viewBox="0 0 1024 1024" version="1.1" xmlns="http://www.w3.org/2000/svg" p-id="6627" xmlns:xlink="http://www.w3.org/1999/xlink" width="200" height="200"><path d="M940.8 147.2H83.2C38.4 147.2 0 185.6 0 230.4v563.2c0 44.8 38.4 83.2 83.2 83.2h857.6c44.8 0 83.2-38.4 83.2-83.2V230.4c0-44.8-38.4-83.2-83.2-83.2z m-896 505.6v-38.4h838.4c12.8 0 25.6 12.8 25.6 25.6s-12.8 25.6-25.6 25.6H51.2 44.8v-12.8z m608-352l-128 192c-6.4 12.8-25.6 12.8-32 6.4s-19.2-25.6-12.8-38.4l128-192c12.8-6.4 25.6-12.8 38.4-6.4s19.2 25.6 6.4 38.4z m-192 0l-128 192c-6.4 12.8-25.6 12.8-38.4 6.4-6.4-6.4-12.8-25.6-6.4-38.4l128-192c12.8-6.4 25.6-12.8 38.4-6.4s19.2 25.6 6.4 38.4z m-192 0l-128 192c-6.4 12.8-25.6 12.8-32 6.4s-19.2-25.6-12.8-38.4l128-192c12.8-6.4 25.6-12.8 38.4-6.4s19.2 25.6 6.4 38.4z" fill="#dbdbdb" p-id="6628"></path></svg>