<?xml version="1.0" standalone="no"?><!DOCTYPE svg PUBLIC "-//W3C//DTD SVG 1.1//EN" "http://www.w3.org/Graphics/SVG/1.1/DTD/svg11.dtd"><svg t="1702815494709" class="icon" viewBox="0 0 1024 1024" version="1.1" xmlns="http://www.w3.org/2000/svg" p-id="8741" xmlns:xlink="http://www.w3.org/1999/xlink" width="350" height="350"><path d="M256 675.626667H161.92L128 641.706667V382.293333l33.92-33.92H256z m-76.586667-42.666667H213.333333V391.04H179.413333l-8.746666 8.96v224z" p-id="8742" fill="#dbdbdb"></path><path d="M384 746.666667h-136.746667L213.333333 712.746667V311.253333L247.253333 277.333333H384z m-119.253333-42.666667H341.333333V320h-76.586666l-8.746667 8.746667v366.506666zM776.746667 746.666667H640V277.333333h136.746667L810.666667 311.253333v401.493334zM682.666667 704h76.586666l8.746667-8.746667V328.746667l-8.746667-8.746667H682.666667z" p-id="8743" fill="#dbdbdb"></path><path d="M682.666667 576H341.333333v-128h341.333334z m-298.666667-42.666667h256v-42.666666H384zM853.333333 618.666667v5.333333l-8.746666 8.96H810.666667V391.04h33.92l8.746666 8.96V576h42.666667v-193.706667l-33.92-33.92H768v327.253334h94.08L896 641.706667V618.666667h-42.666667z" p-id="8744" fill="#dbdbdb"></path></svg>