<?xml version="1.0" standalone="no"?><!DOCTYPE svg PUBLIC "-//W3C//DTD SVG 1.1//EN" "http://www.w3.org/Graphics/SVG/1.1/DTD/svg11.dtd"><svg t="1716117709122" class="icon" viewBox="0 0 1218 1024" version="1.1" xmlns="http://www.w3.org/2000/svg" p-id="2689" xmlns:xlink="http://www.w3.org/1999/xlink" width="237.890625" height="200"><path d="M1064.6633642 933.875H119.65646589a29.53146588 29.53146588 0 1 1-1e-8-59.06293094h945.00689831a29.53146588 29.53146588 0 1 1 0 59.06293094z m-88.59439682-561.09784598v354.37758728a29.53146588 29.53146588 0 0 1-59.06293094 0v-354.37758728a29.53146588 29.53146588 0 0 1 59.06293094 0z m-177.18879365 118.12586188v236.2517254a29.53146588 29.53146588 0 0 1-59.06293094 0v-236.2517254a29.53146588 29.53146588 0 1 1 59.06293094 0z m-177.18879363 0v236.2517254a29.53146588 29.53146588 0 0 1-59.06293093 0v-236.2517254a29.53146588 29.53146588 0 1 1 59.06293093 0z m-177.18879282 59.06293176v177.18879364a29.53146588 29.53146588 0 0 1-59.06293176 0v-177.18879364a29.53146588 29.53146588 0 0 1 59.06293176 0z m-177.18879363 59.06293093v118.12586271a29.53146588 29.53146588 0 0 1-59.06293095 0v-118.1258627a29.53146588 29.53146588 0 0 1 59.06293095-1e-8z m425.2531039-253.97060393a28.94083594 28.94083594 0 0 1-15.82886535 3.48471304 33.13430475 33.13430475 0 0 1-30.00396919-11.39914573l-133.77753889-157.10739696-319.53045768 206.7202587a27.52332605 27.52332605 0 0 1-39.86747836-11.8125857 35.02431794 35.02431794 0 0 1 10.74945327-44.65157629L518.33125116 110.95117991a27.46426272 27.46426272 0 0 1 39.80841503 11.81258651 34.78806628 34.78806628 0 0 1 3.2484614 18.95920092l125.62685459 147.65732776L1023.2602493 94.05918213a29.53146588 29.53146588 0 0 1 40.5171708 10.8675791 29.88584335 29.88584335 0 0 1-10.92664242 40.75342246z" fill="#e6e6e6" p-id="2690"></path></svg>