<?xml version="1.0" standalone="no"?><!DOCTYPE svg PUBLIC "-//W3C//DTD SVG 1.1//EN" "http://www.w3.org/Graphics/SVG/1.1/DTD/svg11.dtd"><svg t="1712113175025" class="icon" viewBox="0 0 1024 1024" version="1.1" xmlns="http://www.w3.org/2000/svg" p-id="3334" xmlns:xlink="http://www.w3.org/1999/xlink" width="200" height="200"><path d="M407.552 253.952h202.752c30.72 0 69.632-53.248 81.92-118.784 10.24-65.536-47.104-55.296-61.44-38.912-14.336 16.384-43.008 40.96-61.44 20.48-18.432-20.48-22.528-40.96-61.44-40.96s-43.008 20.48-61.44 40.96c-18.432 20.48-45.056-2.048-61.44-20.48-14.336-16.384-71.68-28.672-61.44 36.864 12.288 65.536 51.2 120.832 83.968 120.832z m262.144 63.488c-16.384-16.384-38.912-24.576-61.44-24.576h-202.752c-22.528 0-45.056 8.192-61.44 24.576C327.68 335.872 102.4 514.048 102.4 720.896 102.4 886.784 276.48 962.56 366.592 962.56h284.672c90.112 0 264.192-75.776 264.192-241.664-2.048-206.848-225.28-385.024-245.76-403.456z m-16.384 247.808c12.288 0 24.576 10.24 24.576 24.576 0 12.288-10.24 24.576-24.576 24.576h-126.976v71.68h126.976c12.288 0 24.576 10.24 24.576 24.576 0 12.288-10.24 24.576-24.576 24.576h-126.976v102.4c0 12.288-10.24 24.576-24.576 24.576s-24.576-10.24-24.576-24.576v-102.4H368.64c-12.288 0-24.576-10.24-24.576-24.576 0-12.288 10.24-24.576 24.576-24.576h108.544V614.4H368.64c-12.288 0-24.576-10.24-24.576-24.576 0-12.288 10.24-24.576 24.576-24.576h79.872L348.16 468.992c-4.096-4.096-6.144-8.192-6.144-14.336 0-6.144 2.048-10.24 6.144-14.336 8.192-8.192 24.576-8.192 32.768 0l124.928 124.928 124.928-124.928c8.192-8.192 24.576-8.192 32.768 0 4.096 4.096 6.144 10.24 6.144 16.384 0 6.144-2.048 12.288-6.144 16.384l-100.352 96.256 90.112-4.096z" fill="#e6e6e6" p-id="3335"></path></svg>