<?xml version="1.0" standalone="no"?><!DOCTYPE svg PUBLIC "-//W3C//DTD SVG 1.1//EN" "http://www.w3.org/Graphics/SVG/1.1/DTD/svg11.dtd"><svg t="1713591568662" class="icon" viewBox="0 0 1024 1024" version="1.1" xmlns="http://www.w3.org/2000/svg" p-id="1477" xmlns:xlink="http://www.w3.org/1999/xlink" width="200" height="200"><path d="M199.616 352a32 32 0 0 1 32 32v32a32 32 0 0 1-32 32H192v352h640V448h-7.616a32 32 0 0 1-32-32v-32a32 32 0 0 1 32-32h20.576c43.776 0 83.04 31.36 83.04 76v392C928 864.64 888.736 896 844.96 896H179.04C135.264 896 96 864.64 96 820v-392C96 383.36 135.264 352 179.04 352h20.576zM256 736a32 32 0 0 1-32-32v-32a32 32 0 0 1 32-32h16V208a80 80 0 0 1 74.752-79.84L352 128h320a80 80 0 0 1 80 80V640h16a32 32 0 0 1 32 32v32a32 32 0 0 1-32 32H256zM656 224h-288v416h288V224z m-134.4 77.856a16 16 0 0 1 3.2 3.2l64 85.344a16 16 0 0 1-12.8 25.6h-16v144a32 32 0 0 1-32 32h-32a32 32 0 0 1-32-32V416H448a16 16 0 0 1-12.8-25.6l64-85.344a16 16 0 0 1 22.4-3.2z" fill="#dbdbdb" p-id="1478"></path></svg>