<?xml version="1.0" standalone="no"?><!DOCTYPE svg PUBLIC "-//W3C//DTD SVG 1.1//EN" "http://www.w3.org/Graphics/SVG/1.1/DTD/svg11.dtd"><svg t="1712113324025" class="icon" viewBox="0 0 1024 1024" version="1.1" xmlns="http://www.w3.org/2000/svg" p-id="4468" width="400" height="400" xmlns:xlink="http://www.w3.org/1999/xlink"><path d="M287.9 269.1l432.1 0.7v-46.6H279c-31.9 0-57.5 25.5-57.5 56.9v171.4s5 14 20.5 14.3c15.5 0.3 22.9-14.3 22.9-14.3V291.8c0.1-12.6 10.2-22.7 23-22.7z m33.6 530v43c0 18.3-11.4 23.7-25.8 11.8l-63.4-52.4c-14.2-11.8-14.3-30.8 0-42.7l63.4-56.4c14.3-11.8 25.8-6.4 25.8 11.8v38.4l432.1 0.7c12.8 0 22.9-10.1 22.9-22.7V570.8s7.4-14.7 22.9-14.3c15.5 0.3 20.5 14.3 20.5 14.3v171.4c0 31.4-25.6 56.9-57.5 56.9H321.5z m487.6-535.4l-63.4 56.4c-14.3 11.8-25.8 6.4-25.8-11.8v-128c0-18.3 11.4-23.7 25.8-11.8l63.4 52.4c14.3 11.8 14.4 30.9 0 42.8z m-214 377.6c-12.6 12.5-33.6 20.9-54.6 25v37.5H511v-37.5c-42-4.2-67.2-29.2-75.6-70.9l46.2-12.5c4.2 25 21 41.7 46.2 41.7 12.6 0 21-4.2 25.2-8.4 4.2-4.2 8.4-12.5 8.4-20.8 0-8.4-4.2-16.7-8.4-20.9-4.2-4.2-16.8-8.3-37.8-16.7-16.8-4.2-29.4-12.5-42-16.7-8.4-4.2-16.8-12.5-25.2-25-4.2-8.4-8.4-20.9-8.4-37.5s4.2-33.4 16.8-50c12.6-12.5 29.4-25 50.4-25v-29.2h29.4v29.2c33.6 4.2 58.8 25 67.2 58.4l-42 16.7c-8.4-25-21-37.5-37.8-37.5-8.4 0-16.8 4.2-21 8.3-4.2 4.2-8.4 12.5-8.4 20.9s4.2 12.5 8.4 16.7c4.2 4.2 16.8 8.3 33.6 16.7 16.8 8.4 33.6 12.5 42 20.9 8.4 4.2 16.8 12.5 25.2 25s12.6 25 12.6 37.5c0.1 20.8-8.3 37.5-20.9 54.1z" fill="#e6e6e6" p-id="4469"></path></svg>