<?xml version="1.0" standalone="no"?><!DOCTYPE svg PUBLIC "-//W3C//DTD SVG 1.1//EN" "http://www.w3.org/Graphics/SVG/1.1/DTD/svg11.dtd"><svg t="1715854634550" class="icon" viewBox="0 0 1024 1024" version="1.1" xmlns="http://www.w3.org/2000/svg" p-id="10939" xmlns:xlink="http://www.w3.org/1999/xlink" width="200" height="200"><path d="M250.88 989.866667H129.706667c-51.2 0-93.866667-42.666667-93.866667-93.866667v-768c0-51.2 42.666667-93.866667 93.866667-93.866667h614.4c51.2 0 93.866667 42.666667 93.866666 93.866667v331.093333c0 13.653333-11.946667 25.6-25.6 25.6s-25.6-11.946667-25.6-25.6V128C786.773333 104.106667 768 85.333333 744.106667 85.333333h-614.4C105.813333 85.333333 87.04 104.106667 87.04 128v768c0 23.893333 18.773333 42.666667 42.666667 42.666667h121.173333c13.653333 0 25.6 11.946667 25.6 25.6s-11.946667 25.6-25.6 25.6z" fill="#dbdbdb" p-id="10940"></path><path d="M628.053333 296.96H215.04c-13.653333 0-25.6-11.946667-25.6-25.6s11.946667-25.6 25.6-25.6h413.013333c13.653333 0 25.6 11.946667 25.6 25.6s-11.946667 25.6-25.6 25.6zM457.386667 476.16H215.04c-13.653333 0-25.6-11.946667-25.6-25.6s11.946667-25.6 25.6-25.6h242.346667c13.653333 0 25.6 11.946667 25.6 25.6s-11.946667 25.6-25.6 25.6zM337.92 655.36h-122.88c-13.653333 0-25.6-11.946667-25.6-25.6s11.946667-25.6 25.6-25.6h122.88c13.653333 0 25.6 11.946667 25.6 25.6s-11.946667 25.6-25.6 25.6z" fill="#dbdbdb" p-id="10941"></path><path d="M872.106667 989.866667H414.72c-17.066667 0-32.426667-8.533333-40.96-23.893334s-8.533333-32.426667 1.706667-47.786666l228.693333-366.933334c8.533333-13.653333 23.893333-22.186667 39.253333-22.186666 17.066667 0 30.72 8.533333 39.253334 22.186666l228.693333 366.933334c8.533333 13.653333 10.24 32.426667 1.706667 47.786666-6.826667 15.36-23.893333 23.893333-40.96 23.893334z m-450.56-51.2h443.733333l-221.866667-354.986667-221.866666 354.986667z" fill="#dbdbdb" p-id="10942"></path><path d="M643.413333 907.946667c-13.653333 0-25.6-11.946667-25.6-25.6v-56.32c0-13.653333 11.946667-25.6 25.6-25.6s25.6 11.946667 25.6 25.6v56.32c0 15.36-11.946667 25.6-25.6 25.6z" fill="#dbdbdb" p-id="10943"></path><path d="M643.413333 737.28m-37.546666 0a37.546667 37.546667 0 1 0 75.093333 0 37.546667 37.546667 0 1 0-75.093333 0Z" fill="#dbdbdb" p-id="10944"></path><path d="M477.866667 899.413333l233.813333-373.76c8.533333-13.653333 29.013333-13.653333 37.546667 0l233.813333 373.76c8.533333 15.36-1.706667 34.133333-18.773333 34.133334H496.64c-17.066667 0-27.306667-18.773333-18.773333-34.133334z" fill="#dbdbdb" opacity=".3" p-id="10945"></path></svg>