<?xml version="1.0" standalone="no"?><!DOCTYPE svg PUBLIC "-//W3C//DTD SVG 1.1//EN" "http://www.w3.org/Graphics/SVG/1.1/DTD/svg11.dtd"><svg t="1713860709180" class="icon" viewBox="0 0 1024 1024" version="1.1" xmlns="http://www.w3.org/2000/svg" p-id="5309" width="256" height="256" xmlns:xlink="http://www.w3.org/1999/xlink"><path d="M981.333333 746.666667a277.333333 277.333333 0 0 1-523.306666 128H149.333333a85.333333 85.333333 0 0 1-85.333333-85.333334V106.666667a85.333333 85.333333 0 0 1 85.333333-85.333334h597.333334a85.333333 85.333333 0 0 1 85.333333 85.333334v384h-21.333333a277.333333 277.333333 0 0 1 170.666666 256zM768 149.333333a64 64 0 0 0-64-64H192a64 64 0 0 0-64 64v597.333334a64 64 0 0 0 64 64h242.346667A276.48 276.48 0 0 1 768 477.056V149.333333z m-64 384a213.738667 213.738667 0 1 0 191.786667 120.213334l-173.013334 172.970666a31.786667 31.786667 0 0 1-20.053333 8.853334 26.282667 26.282667 0 0 1-2.346667 3.626666 32 32 0 0 1-45.226666 0l-75.52-75.413333a32 32 0 1 1 45.226666-45.269333L682.666667 776.085333l173.226666-173.269333c1.066667-0.96 2.346667-1.365333 3.413334-2.133333A212.949333 212.949333 0 0 0 704 533.333333z m-74.666667-128h-362.666666a32 32 0 0 1 0-64h362.666666a32 32 0 0 1 0 64z m0-149.333333h-362.666666a32 32 0 0 1 0-64h362.666666a32 32 0 0 1 0 64z m-362.666666 234.666667h106.666666a32 32 0 0 1 0 64h-106.666666a32 32 0 0 1 0-64z" p-id="5310" fill="#dbdbdb"></path></svg>