<?xml version="1.0" standalone="no"?><!DOCTYPE svg PUBLIC "-//W3C//DTD SVG 1.1//EN" "http://www.w3.org/Graphics/SVG/1.1/DTD/svg11.dtd"><svg t="1714793428621" class="icon" viewBox="0 0 1024 1024" version="1.1" xmlns="http://www.w3.org/2000/svg" p-id="4280" xmlns:xlink="http://www.w3.org/1999/xlink" width="200" height="200"><path d="M64 151.744c0-10.368 8.64-20.48 19.584-22.528C83.584 129.28 425.28 64 479.616 64c54.4 0 397.312 65.28 397.312 65.28 10.88 2.432 18.752 11.648 19.072 22.464v340.48c0 125.12-87.488 284.16-196.736 353.664 0 0-162.048 114.112-217.216 114.112-55.168 0-220.8-115.2-220.8-115.2C152.32 775.296 64 617.472 64 492.352v-340.48z m278.336 357.76c-3.136 7.808 1.28 14.464 10.24 14.464h84.8c8.704 0 14.528 6.912 12.736 15.36l-27.52 128.512c-7.232 33.664 3.648 38.272 24.32 10.432l169.216-228.608c5.184-6.976 2.112-12.672-6.784-12.928l-105.792-2.56c-9.088-0.192-13.248-6.72-9.728-14.528l59.392-130.752c3.52-7.68-0.768-14.08-9.664-14.08h-90.88a25.408 25.408 0 0 0-21.952 14.464L342.336 509.44z" fill="#dbdbdb" p-id="4281"></path></svg>